<svg xmlns="http://www.w3.org/2000/svg"  viewBox="0 0 48 48" width="144px" height="144px"><path d="M40.449,19.307C35.722,12.647,26.076,8.909,20.747,8.021C14.843,7.037,11.262,7.41,8.27,7.96	c-1.037,0.191-4.193,0.773-4.656,3.022c-0.412,2.006,1.64,3.488,2.055,3.766c0.689,0.46,1.621,0.273,2.08-0.416	c0.46-0.689,0.273-1.621-0.416-2.08c-0.225-0.149-0.531-0.439-0.687-0.651c0.24-0.156,0.832-0.443,2.167-0.689	c2.536-0.468,5.723-0.885,11.44,0.068c4.65,0.775,13.582,4.193,17.751,10.064c1.832,2.581,2.511,5.34,2.018,8.201	c-0.481,2.792-1.719,4.694-3.782,5.817c-3.915,2.128-9.86,1.02-13.739-0.097v-9.417c1.538-0.029,2.911,0.089,4.726,0.427	c1.508,0.28,2.32,1.242,2.353,1.702c0.014,0.196-0.42,0.355-0.553,0.4c-0.786,0.262-1.21,1.111-0.948,1.897	c0.262,0.785,1.114,1.213,1.897,0.948c2.043-0.681,2.681-2.229,2.596-3.452c-0.144-2.085-2.16-3.955-4.796-4.445	c-2.009-0.375-3.547-0.51-5.274-0.478V18.5c0-0.828-0.672-1.5-1.5-1.5s-1.5,0.672-1.5,1.5v4.187	c-7.292,0.501-10.837,1.938-11.37,4.574c-0.822,4.06,6.861,7.99,9.279,9.118c0.121,0.052,0.894,0.377,2.091,0.789V39.5	c0,0.828,0.672,1.5,1.5,1.5s1.5-0.672,1.5-1.5v-1.419c2.34,0.622,5.224,1.176,8.1,1.176c2.487,0,4.966-0.415,7.067-1.557	c2.886-1.566,4.673-4.24,5.312-7.945C43.612,26.078,42.762,22.562,40.449,19.307z M18.635,33.641	c-4.028-1.883-7.775-4.748-7.565-5.785c0.003-0.017,0.426-1.588,8.431-2.165v8.288C18.961,33.778,18.646,33.646,18.635,33.641z"/></svg>